# xmcd CD database file
#
# Track frame offsets:
#	151
#	16637
#	49171
#	73986
#	96082
#	115226
#	154215
#	177121
#
# Disc length: 2698 seconds
#
# Revision: 0
# Processed by: cddbd v1.5.2PL0 Copyright (c) Steve Scherf et al.
# Submitted via: CDex 1.51
#
DISCID=620a8808
DTITLE=Eric Clapton - Just One Night
DYEAR=1980
DGENRE=Blues
TTITLE0=Tulsa Time
TTITLE1=Early In The Morning
TTITLE2=Lay Down Sally
TTITLE3=Wonderful Tonight
TTITLE4=If I Don't Be There By Morning
TTITLE5=Worried Life Blues
TTITLE6=All Our Past Times
TTITLE7=After Midnight
EXTD=YEAR: 1980
EXTT0=
EXTT1=
EXTT2=
EXTT3=
EXTT4=
EXTT5=
EXTT6=
EXTT7=
PLAYORDER=
